<svg width="48" height="45" viewBox="0 0 48 45" fill="none" xmlns="http://www.w3.org/2000/svg">
<path d="M23.6049 0.0537588C24.4288 -0.19905 25.3464 0.475107 25.3745 1.33653C25.3839 2.9002 25.3745 4.46387 25.3745 6.0369C25.3933 6.68297 24.897 7.30095 24.2603 7.42267C23.455 7.6193 22.5936 6.95451 22.5749 6.13054C22.5655 4.56687 22.5749 3.0032 22.5655 1.43953C22.5468 0.802822 22.9962 0.212935 23.6049 0.0537588Z" fill="#DF2DB1"/>
<path d="M13.3146 3.33094C13.7921 3.19985 14.3352 3.34966 14.6816 3.70547C15.8989 4.9227 17.1161 6.13993 18.3333 7.34779C18.7172 7.69423 18.9139 8.2373 18.7921 8.74292C18.6798 9.28599 18.2116 9.71671 17.6685 9.81034C17.2285 9.88524 16.7603 9.74479 16.4419 9.43581C15.206 8.19985 13.9794 6.9639 12.7434 5.7373C12.4157 5.42832 12.2285 4.96951 12.2846 4.52008C12.3408 3.95828 12.7622 3.46202 13.3146 3.33094Z" fill="#DF2DB1"/>
<path d="M33.9045 3.33086C34.5131 3.16232 35.2247 3.45258 35.5056 4.03311C35.7959 4.56682 35.6835 5.26906 35.2434 5.69041C33.9981 6.93573 32.7528 8.19041 31.4981 9.43573C30.9925 9.94135 30.1124 9.96944 29.588 9.48255C28.9981 8.98629 28.9607 7.99378 29.5225 7.45071C30.7678 6.20539 32.0131 4.96007 33.2584 3.70539C33.4363 3.52749 33.661 3.3964 33.9045 3.33086Z" fill="#DF2DB1"/>
<path d="M13.5768 14.5669C14.9625 13.4152 16.7416 12.7692 18.5393 12.7598C21.3202 12.7598 24.1011 12.7598 26.8727 12.7598C28.0431 12.7223 29.2228 13.0126 30.206 13.6587C30.7678 14.0145 31.236 14.5014 31.7041 14.9695C33.2303 16.4958 34.7659 18.0313 36.2921 19.5575C36.6573 19.9134 37.0225 20.2972 37.2285 20.7748C37.8371 22.0482 37.4625 23.7055 36.3483 24.5763C35.1498 25.5781 33.2303 25.4658 32.1255 24.389C30.7865 23.0688 29.4757 21.7298 28.1461 20.4096C27.8652 20.1287 27.4719 19.9789 27.0787 19.9789C23.5487 19.9695 20.0187 19.9789 16.4888 19.9789C14.9625 21.2617 13.4363 22.5444 11.9007 23.8272C11.3296 24.3141 10.7303 24.7635 10.2715 25.3628C8.96067 27.0107 8.64232 29.3796 9.45693 31.3178C10.103 32.9096 11.4794 34.1737 13.1086 34.7074C13.2491 35.5594 13.5487 36.3834 14.0075 37.1137C13.2772 37.0669 12.4064 37.301 11.8071 36.7486C10.6648 35.6343 9.55056 34.492 8.4176 33.3684C6.26405 33.359 4.11985 33.3684 1.96629 33.3684C1.5824 33.3684 1.17041 33.4059 0.805243 33.228C0.365169 33.0126 0.0842697 32.5819 0 32.1137V16.8141C0.0842697 16.1212 0.702247 15.5501 1.40449 15.5594C5.11236 15.5594 8.82022 15.5594 12.5281 15.5594C12.8652 15.2223 13.2022 14.8759 13.5768 14.5669Z" fill="#F6F6F7"/>
<path d="M39.1011 18.4714C41.5824 18.4714 44.0543 18.4714 46.5356 18.4714C47.2191 18.4527 47.809 19.0051 47.9401 19.6699V35.0164C47.8465 35.6999 47.2378 36.271 46.545 36.2617C44.6723 36.271 42.7996 36.2617 40.927 36.2617C40.7397 36.271 40.5056 36.2149 40.3652 36.374C37.2472 38.9958 34.1199 41.6081 31.0019 44.2298C30.2341 44.8946 29.1479 45.1568 28.1648 44.904C26.9569 44.6137 25.9925 43.565 25.8146 42.3385C25.6461 41.3928 25.9832 40.4096 26.6011 39.6886C25.9832 40.1755 25.3933 40.6999 24.7847 41.1961C24.0824 41.8047 23.1086 42.0763 22.2004 41.9171C20.9738 41.7298 19.9345 40.7467 19.6536 39.5482C19.382 38.4808 19.7285 37.301 20.515 36.5426C19.8315 36.992 18.9888 37.2261 18.1648 37.0856C16.8914 36.8984 15.8053 35.8591 15.5618 34.5856C15.3464 33.537 15.7116 32.404 16.4794 31.6737C15.6742 32.2355 14.6255 32.4508 13.6798 32.1512C12.4157 31.786 11.47 30.5688 11.4326 29.2579C11.3858 28.2748 11.8352 27.2916 12.603 26.6737C14.1573 25.3909 15.6742 24.0707 17.2378 22.8066C20.3464 22.7973 23.4551 22.7973 26.5637 22.8066C27.5375 23.7991 28.53 24.7823 29.5131 25.7654C29.9251 26.168 30.309 26.5988 30.7772 26.9358C31.8539 27.7411 33.2116 28.1531 34.5599 28.0969C35.8333 28.0594 37.0787 27.5913 38.0712 26.7954C39.2697 25.8403 40.0843 24.3984 40.2715 22.8722C40.4775 21.3179 40.0375 19.7167 39.1011 18.4714Z" fill="#F6F6F7"/>
</svg>
