<svg width="49" height="41" viewBox="0 0 49 41" fill="none" xmlns="http://www.w3.org/2000/svg">
<path d="M23.0027 0.080234C24.6269 -0.146394 26.3172 0.108562 27.7903 0.826217C29.7544 1.76106 31.3219 3.48909 32.0584 5.53818C32.9932 8.06886 32.5872 11.0622 30.9914 13.2435C29.5749 15.2737 27.2048 16.6052 24.7308 16.7468C22.2662 16.9357 19.7544 15.9347 18.0736 14.1312C16.9782 12.9791 16.2228 11.506 15.9395 9.93854C15.5429 7.91778 15.9395 5.75537 17.0254 4.00845C18.3097 1.89326 20.5571 0.40129 23.0027 0.080234Z" fill="white"/>
<path d="M8.61185 7.87055C10.0188 7.6817 11.4919 7.99331 12.71 8.73929C13.8715 9.4475 14.7875 10.5429 15.2879 11.8177C15.8167 13.168 15.8545 14.6977 15.3918 16.0669C14.7591 18.0027 13.1161 19.5702 11.152 20.1273C9.66944 20.5523 8.02639 20.4012 6.64774 19.7119C5.29742 19.0414 4.21149 17.8705 3.64492 16.4824C3.09724 15.1699 3.02169 13.659 3.43718 12.2992C4.09818 9.96686 6.21337 8.15384 8.61185 7.87055Z" fill="#B756FE"/>
<path d="M38.1584 7.86116C39.5182 7.70064 40.9346 7.98392 42.115 8.69213C43.3048 9.40034 44.2585 10.5146 44.759 11.8083C45.335 13.2719 45.335 14.9527 44.7401 16.4069C44.1829 17.8328 43.0781 19.0226 41.7089 19.7025C40.708 20.2124 39.556 20.4201 38.4417 20.3446C36.4587 20.2124 34.589 19.0415 33.5692 17.3418C32.2283 15.2455 32.37 12.3465 33.8714 10.373C34.8723 8.98486 36.4587 8.05946 38.1584 7.86116Z" fill="#B756FE"/>
<path d="M19.1784 18.5315C19.8299 18.4749 20.4909 18.4937 21.1425 18.4937C23.5693 18.4937 25.9867 18.4937 28.4135 18.4937C30.0943 18.4843 31.7657 19.1075 33.031 20.2218C34.2208 21.2605 35.0518 22.7052 35.3067 24.2633C35.4484 25.0093 35.4106 25.7742 35.42 26.539C35.42 30.8827 35.42 35.217 35.42 39.5607C35.4389 40.0989 35.1179 40.6372 34.6174 40.8638C34.2775 41.0338 33.8809 40.996 33.5126 41.0054C27.1198 41.0054 20.7364 41.0054 14.3437 41.0054C13.5693 41.0432 12.8706 40.3444 12.9178 39.5701C12.9178 34.8865 12.9178 30.1934 12.9178 25.5098C12.9178 23.9895 13.4183 22.4692 14.3437 21.2605C15.4957 19.7308 17.2898 18.7204 19.1784 18.5315Z" fill="white"/>
<path d="M2.26628 23.98C3.49384 22.8374 5.13689 22.1764 6.80827 22.1386C8.11138 22.1197 9.41449 22.1292 10.7176 22.1292C10.3021 23.3001 10.1133 24.5371 10.1227 25.7836C10.1227 29.9101 10.1227 34.0271 10.1227 38.1537C10.1321 39.1074 10.0472 40.08 10.3588 40.996C8.72517 40.996 7.101 40.996 5.46739 40.996C4.77807 40.9865 4.08874 41.0243 3.39942 40.911C2.61566 40.7599 1.88856 40.3916 1.30311 39.8439C0.50047 39.0885 0.0472141 37.9931 0 36.8789V28.9375C0.0566569 27.0678 0.878182 25.2359 2.26628 23.98Z" fill="#B756FE"/>
<path d="M37.6296 22.1293C38.7817 22.1199 39.9337 22.1293 41.0763 22.1293C41.775 22.1293 42.4832 22.186 43.1537 22.3654C44.674 22.762 46.0432 23.7063 46.978 24.9716C47.8279 26.1142 48.3 27.5117 48.3378 28.9376V36.879C48.2906 37.5117 48.1678 38.1538 47.8657 38.7204C47.2802 39.8724 46.1282 40.7222 44.8534 40.93C44.1924 41.0339 43.5314 40.9961 42.861 41.0055C41.2274 41.0055 39.6032 41.0055 37.9696 41.0055C38.1301 40.4862 38.2151 39.9385 38.2057 39.3908C38.2057 34.7921 38.2057 30.1935 38.2057 25.6043C38.2245 24.4145 38.0168 23.2436 37.6296 22.1293Z" fill="#B756FE"/>
</svg>
