<svg width="152" height="38" viewBox="0 0 152 38" fill="none" xmlns="http://www.w3.org/2000/svg">
<path d="M149.063 32C148.326 32 147.716 31.766 147.231 31.2988C146.766 30.8108 146.534 30.2111 146.534 29.4998C146.534 28.7884 146.766 28.1989 147.231 27.7318C147.716 27.2438 148.326 27 149.063 27C149.78 27 150.371 27.2438 150.836 27.7318C151.301 28.1989 151.534 28.7884 151.534 29.4998C151.534 30.2111 151.301 30.8108 150.836 31.2988C150.371 31.766 149.78 32 149.063 32Z" fill="#7214FF"/>
<path d="M60.0904 23.2727C60.0904 25.1761 59.7296 26.7955 59.008 28.1307C58.2921 29.4659 57.3148 30.4858 56.0762 31.1903C54.8432 31.8892 53.4569 32.2386 51.9171 32.2386C50.366 32.2386 48.9739 31.8864 47.741 31.1818C46.508 30.4773 45.5336 29.4574 44.8177 28.1222C44.1018 26.7869 43.7438 25.1705 43.7438 23.2727C43.7438 21.3693 44.1018 19.75 44.8177 18.4148C45.5336 17.0795 46.508 16.0625 47.741 15.3636C48.9739 14.6591 50.366 14.3068 51.9171 14.3068C53.4569 14.3068 54.8432 14.6591 56.0762 15.3636C57.3148 16.0625 58.2921 17.0795 59.008 18.4148C59.7296 19.75 60.0904 21.3693 60.0904 23.2727ZM56.3489 23.2727C56.3489 22.0398 56.1643 21 55.7949 20.1534C55.4313 19.3068 54.9171 18.6648 54.2523 18.2273C53.5875 17.7898 52.8091 17.571 51.9171 17.571C51.025 17.571 50.2466 17.7898 49.5819 18.2273C48.9171 18.6648 48.4 19.3068 48.0307 20.1534C47.6671 21 47.4853 22.0398 47.4853 23.2727C47.4853 24.5057 47.6671 25.5455 48.0307 26.392C48.4 27.2386 48.9171 27.8807 49.5819 28.3182C50.2466 28.7557 51.025 28.9744 51.9171 28.9744C52.8091 28.9744 53.5875 28.7557 54.2523 28.3182C54.9171 27.8807 55.4313 27.2386 55.7949 26.392C56.1643 25.5455 56.3489 24.5057 56.3489 23.2727ZM62.7559 36.9091V18.9091H66.3354V21.108H66.4973C66.6564 20.7557 66.8866 20.3977 67.1877 20.0341C67.4945 19.6648 67.8922 19.358 68.3809 19.1136C68.8752 18.8636 69.4888 18.7386 70.2218 18.7386C71.1763 18.7386 72.057 18.9886 72.8638 19.4886C73.6706 19.983 74.3155 20.7301 74.7985 21.7301C75.2814 22.7244 75.5229 23.9716 75.5229 25.4716C75.5229 26.9318 75.2871 28.1648 74.8155 29.1705C74.3496 30.1705 73.7133 30.929 72.9064 31.446C72.1053 31.9574 71.2076 32.2131 70.2133 32.2131C69.5087 32.2131 68.9093 32.0966 68.415 31.8636C67.9263 31.6307 67.5258 31.3381 67.2133 30.9858C66.9008 30.6278 66.6621 30.267 66.4973 29.9034H66.3866V36.9091H62.7559ZM66.3098 25.4545C66.3098 26.233 66.4178 26.9119 66.6337 27.4915C66.8496 28.071 67.1621 28.5227 67.5712 28.8466C67.9803 29.1648 68.4775 29.3239 69.0627 29.3239C69.6536 29.3239 70.1536 29.1619 70.5627 28.8381C70.9718 28.5085 71.2814 28.054 71.4917 27.4744C71.7076 26.8892 71.8155 26.2159 71.8155 25.4545C71.8155 24.6989 71.7104 24.0341 71.5002 23.4602C71.29 22.8864 70.9803 22.4375 70.5712 22.1136C70.1621 21.7898 69.6593 21.6278 69.0627 21.6278C68.4718 21.6278 67.9718 21.7841 67.5627 22.0966C67.1593 22.4091 66.8496 22.8523 66.6337 23.4261C66.4178 24 66.3098 24.6761 66.3098 25.4545ZM84.9064 18.9091V21.6364H77.0229V18.9091H84.9064ZM78.8127 15.7727H82.4434V27.9773C82.4434 28.3125 82.4945 28.5739 82.5968 28.7614C82.6991 28.9432 82.8411 29.071 83.0229 29.1449C83.2104 29.2187 83.4263 29.2557 83.6706 29.2557C83.8411 29.2557 84.0116 29.2415 84.182 29.2131C84.3525 29.179 84.4831 29.1534 84.5741 29.1364L85.1451 31.8381C84.9633 31.8949 84.7076 31.9602 84.378 32.0341C84.0485 32.1136 83.6479 32.1619 83.1763 32.179C82.3013 32.2131 81.5343 32.0966 80.8752 31.8295C80.2218 31.5625 79.7133 31.1477 79.3496 30.5852C78.986 30.0227 78.807 29.3125 78.8127 28.4545V15.7727ZM87.2715 32V18.9091H90.9022V32H87.2715ZM89.0954 17.2216C88.5556 17.2216 88.0925 17.0426 87.7062 16.6847C87.3255 16.321 87.1351 15.8864 87.1351 15.3807C87.1351 14.8807 87.3255 14.4517 87.7062 14.0938C88.0925 13.7301 88.5556 13.5483 89.0954 13.5483C89.6351 13.5483 90.0954 13.7301 90.476 14.0938C90.8624 14.4517 91.0556 14.8807 91.0556 15.3807C91.0556 15.8864 90.8624 16.321 90.476 16.6847C90.0954 17.0426 89.6351 17.2216 89.0954 17.2216ZM102.442 32H98.4874L104.513 14.5455H109.269L115.286 32H111.331L106.959 18.5341H106.823L102.442 32ZM102.195 25.1392H111.536V28.0199H102.195V25.1392ZM121.533 32.2131C120.539 32.2131 119.638 31.9574 118.831 31.446C118.03 30.929 117.394 30.1705 116.922 29.1705C116.456 28.1648 116.223 26.9318 116.223 25.4716C116.223 23.9716 116.465 22.7244 116.948 21.7301C117.431 20.7301 118.073 19.983 118.874 19.4886C119.681 18.9886 120.564 18.7386 121.524 18.7386C122.257 18.7386 122.868 18.8636 123.357 19.1136C123.851 19.358 124.249 19.6648 124.55 20.0341C124.857 20.3977 125.09 20.7557 125.249 21.108H125.36V14.5455H128.982V32H125.402V29.9034H125.249C125.078 30.267 124.837 30.6278 124.524 30.9858C124.218 31.3381 123.817 31.6307 123.323 31.8636C122.834 32.0966 122.237 32.2131 121.533 32.2131ZM122.683 29.3239C123.269 29.3239 123.763 29.1648 124.166 28.8466C124.575 28.5227 124.888 28.071 125.104 27.4915C125.325 26.9119 125.436 26.233 125.436 25.4545C125.436 24.6761 125.328 24 125.112 23.4261C124.896 22.8523 124.584 22.4091 124.175 22.0966C123.766 21.7841 123.269 21.6278 122.683 21.6278C122.087 21.6278 121.584 21.7898 121.175 22.1136C120.766 22.4375 120.456 22.8864 120.246 23.4602C120.036 24.0341 119.931 24.6989 119.931 25.4545C119.931 26.2159 120.036 26.8892 120.246 27.4744C120.462 28.054 120.771 28.5085 121.175 28.8381C121.584 29.1619 122.087 29.3239 122.683 29.3239ZM142.859 22.642L139.535 22.8466C139.478 22.5625 139.356 22.3068 139.169 22.0795C138.981 21.8466 138.734 21.6619 138.427 21.5256C138.126 21.3835 137.765 21.3125 137.345 21.3125C136.782 21.3125 136.308 21.4318 135.921 21.6705C135.535 21.9034 135.342 22.2159 135.342 22.608C135.342 22.9205 135.467 23.1847 135.717 23.4006C135.967 23.6165 136.396 23.7898 137.004 23.9205L139.373 24.3977C140.646 24.6591 141.595 25.0795 142.22 25.6591C142.845 26.2386 143.157 27 143.157 27.9432C143.157 28.8011 142.904 29.554 142.399 30.2017C141.899 30.8494 141.211 31.3551 140.336 31.7188C139.467 32.0767 138.464 32.2557 137.328 32.2557C135.595 32.2557 134.214 31.8949 133.186 31.1733C132.163 30.446 131.563 29.4574 131.387 28.2074L134.958 28.0199C135.066 28.5483 135.328 28.9517 135.742 29.2301C136.157 29.5028 136.688 29.6392 137.336 29.6392C137.972 29.6392 138.484 29.517 138.87 29.2727C139.262 29.0227 139.461 28.7017 139.467 28.3097C139.461 27.9801 139.322 27.7102 139.049 27.5C138.776 27.2841 138.356 27.1193 137.788 27.0057L135.521 26.554C134.242 26.2983 133.291 25.8551 132.666 25.2244C132.046 24.5937 131.737 23.7898 131.737 22.8125C131.737 21.9716 131.964 21.2472 132.419 20.6392C132.879 20.0312 133.524 19.5625 134.353 19.233C135.188 18.9034 136.166 18.7386 137.285 18.7386C138.938 18.7386 140.24 19.0881 141.188 19.7869C142.143 20.4858 142.7 21.4375 142.859 22.642Z" fill="white"/>
<path d="M31.1874 16.5301V21.8264C31.1874 24.173 31.1858 25.8331 31.078 27.1301C30.9718 28.4071 30.7706 29.1852 30.4525 29.7952C29.8336 30.9839 28.8622 31.9534 27.6703 32.5708C27.0587 32.8881 26.2787 33.0888 24.9987 33.1947C23.6986 33.3023 22.0345 33.3039 19.6824 33.3039H14.7839C12.4317 33.3039 10.7677 33.3023 9.46778 33.1947C8.18745 33.0888 7.40774 32.8881 6.796 32.5708C5.60432 31.9534 4.63267 30.9839 4.01363 29.7952C3.69586 29.1852 3.49465 28.4071 3.38829 27.1301C3.28037 25.8331 3.27901 24.173 3.27901 21.8264V16.9399C3.27901 14.5933 3.28037 12.9334 3.38829 11.6366C3.49465 10.3593 3.69586 9.5815 4.01363 8.97123C4.63267 7.78243 5.60432 6.81312 6.796 6.19557C7.40774 5.87856 8.18745 5.67784 9.46778 5.57177C10.7677 5.46407 12.4316 5.46276 14.7839 5.46276H20.0931C20.1405 4.3162 20.37 3.21649 20.7532 2.19165H14.711C12.4481 2.19161 10.648 2.19161 9.1964 2.31187C7.70965 2.43502 6.44223 2.69279 5.28446 3.29275C3.49387 4.22064 2.03393 5.6771 1.1038 7.46338C0.502386 8.61832 0.244 9.88269 0.120545 11.3659C7.07805e-07 12.8139 0 14.6097 0 16.8671V21.8992C0 24.1567 7.07805e-07 25.9525 0.120545 27.4008C0.244 28.8838 0.502386 30.1481 1.1038 31.3032C2.03393 33.0893 3.49387 34.5457 5.28446 35.4739C6.44223 36.0737 7.70965 36.3313 9.1964 36.4548C10.648 36.575 12.448 36.575 14.7109 36.575H19.7553C22.0181 36.575 23.8183 36.575 25.27 36.4548C26.7567 36.3313 28.024 36.0737 29.1819 35.4739C30.9722 34.5457 32.4322 33.0893 33.3626 31.3032C33.9639 30.1481 34.2221 28.8838 34.3459 27.4008C34.4664 25.9525 34.4664 24.1567 34.4664 21.8996V15.8716C33.4389 16.254 32.3367 16.4828 31.1874 16.5301Z" fill="white"/>
<path d="M22.5336 7.36C22.5336 3.29519 25.8368 0 29.9113 0C33.9859 0 37.2891 3.29519 37.2891 7.36C37.2891 11.4248 33.9859 14.72 29.9113 14.72C25.8368 14.72 22.5336 11.4248 22.5336 7.36Z" fill="#7214FF"/>
</svg>
