<svg width="41" height="41" viewBox="0 0 41 41" fill="none" xmlns="http://www.w3.org/2000/svg">
<circle cx="20.3157" cy="20.3157" r="19" transform="rotate(-4.11899 20.3157 20.3157)" fill="#DF2DB1"/>
<path d="M19.9871 11.9099C24.5955 11.9099 28.3205 15.6432 28.3205 20.2432C28.3205 24.8516 24.5955 28.5766 19.9871 28.5766C15.3871 28.5766 11.6538 24.8516 11.6538 20.2432C11.6538 15.6432 15.3871 11.9099 19.9871 11.9099ZM19.6955 16.0182C19.3538 16.0182 19.0705 16.2932 19.0705 16.6432V20.8516C19.0705 21.0682 19.1871 21.2682 19.3788 21.3849L22.6455 23.3349C22.7455 23.3932 22.8538 23.4266 22.9705 23.4266C23.1788 23.4266 23.3871 23.3182 23.5038 23.1182C23.6788 22.8266 23.5871 22.4432 23.2871 22.2599L20.3205 20.4932V16.6432C20.3205 16.2932 20.0371 16.0182 19.6955 16.0182Z" fill="#060B27"/>
</svg>
