<svg width="41" height="41" viewBox="0 0 41 41" fill="none" xmlns="http://www.w3.org/2000/svg">
<circle cx="20.3157" cy="20.3157" r="19" transform="rotate(-4.11899 20.3157 20.3157)" fill="#32CAFD"/>
<path d="M22.691 13.2772C22.6727 13.4874 22.671 13.6964 22.686 13.9042C22.8207 15.7743 24.4423 17.1773 26.3041 17.0432C26.5119 17.0283 26.7097 16.9898 26.9151 16.9416L27.3981 23.6484C27.6011 26.4669 26.059 28.2573 23.233 28.4608L17.0914 28.9031C14.2645 29.1067 12.4819 27.5557 12.2789 24.7372L11.836 18.5873C11.6325 15.7613 13.174 13.9626 16.0008 13.759L22.691 13.2772ZM23.222 18.3187C22.9949 18.31 22.7785 18.4259 22.6579 18.6184L20.8346 21.3648L18.4009 19.7186C18.2518 19.6208 18.0825 19.5903 17.9176 19.6198C17.7539 19.6566 17.6109 19.758 17.5199 19.8982L15.2909 23.2762L15.2456 23.3547C15.1234 23.63 15.2144 23.966 15.477 24.1317C15.5988 24.1982 15.727 24.239 15.8683 24.2289C16.0609 24.2234 16.2357 24.1097 16.3408 23.9442L18.2336 21.1084L20.7306 22.7174L20.809 22.761C21.0851 22.8832 21.4129 22.7936 21.586 22.5296L23.7649 19.2572L23.7329 19.2762C23.8527 19.0837 23.8609 18.8492 23.7545 18.648C23.6489 18.4467 23.4384 18.3199 23.222 18.3187ZM26.0256 11.5496C27.1311 11.47 28.0934 12.303 28.173 13.4085C28.2526 14.514 27.4196 15.4763 26.3141 15.5559C25.2086 15.6355 24.2463 14.8025 24.1667 13.697C24.0871 12.5916 24.9201 11.6292 26.0256 11.5496Z" fill="#060B27"/>
</svg>
