<svg width="41" height="41" viewBox="0 0 41 41" fill="none" xmlns="http://www.w3.org/2000/svg">
<circle cx="20.3157" cy="20.3157" r="19" transform="rotate(-4.11899 20.3157 20.3157)" fill="#7214FF"/>
<path d="M23.8783 11.9101C26.7125 11.9101 28.3125 13.5176 28.3208 16.3518L28.3208 24.1351C28.3208 26.9685 26.7125 28.5768 23.8783 28.5768L16.0958 28.5768C13.2616 28.5768 11.6541 26.9685 11.6541 24.1351L11.6541 16.3518C11.6541 13.5176 13.2616 11.9101 16.0958 11.9101L23.8783 11.9101ZM20.4041 15.3518C20.17 15.2101 19.8866 15.2101 19.6625 15.3518C19.4366 15.4926 19.3125 15.7518 19.3366 16.0101L19.3366 24.5018C19.3791 24.8601 19.6783 25.1268 20.0283 25.1268C20.3875 25.1268 20.6866 24.8601 20.72 24.5018L20.72 16.0101C20.7533 15.7518 20.6291 15.4926 20.4041 15.3518ZM16.5125 18.0851C16.2875 17.9435 16.0033 17.9435 15.7791 18.0851C15.5533 18.2268 15.4291 18.4843 15.4541 18.7435L15.4541 24.5018C15.4866 24.8601 15.7866 25.1268 16.145 25.1268C16.5041 25.1268 16.8033 24.8601 16.8366 24.5018L16.8366 18.7435C16.8625 18.4843 16.7366 18.2268 16.5125 18.0851ZM24.2283 21.1101C24.0041 20.9685 23.7208 20.9685 23.4875 21.1101C23.2616 21.2518 23.1375 21.501 23.1708 21.7685L23.1708 24.5018C23.2041 24.8601 23.5033 25.1268 23.8625 25.1268C24.2125 25.1268 24.5116 24.8601 24.5541 24.5018L24.5541 21.7685C24.5783 21.501 24.4541 21.2518 24.2283 21.1101Z" fill="#060B27"/>
</svg>
